M48
; DRILL file {KiCad (5.1.5)-3} date 7/31/2021 1:35:13 PM
; FORMAT={-:-/ absolute / metric / decimal}
; #@! TF.CreationDate,2021-07-31T13:35:13-07:00
; #@! TF.GenerationSoftware,Kicad,Pcbnew,(5.1.5)-3
FMAT,2
METRIC
T1C0.200
T2C0.300
T3C0.500
T4C1.000
T5C1.300
T6C2.200
T7C0.900
%
G90
G05
T1
X71.056Y-126.047
X71.819Y-121.73
X71.85Y-117.126
X72.326Y-135.255
X72.834Y-136.779
X72.962Y-111.633
X72.962Y-114.744
X74.422Y-78.74
X74.422Y-88.9
X74.422Y-99.06
X75.629Y-119.761
X76.517Y-120.396
X76.517Y-119.38
X76.835Y-137.922
X76.962Y-124.079
X76.962Y-125.349
X77.413Y-116.769
X77.597Y-117.602
X77.597Y-124.714
X78.105Y-134.556
X78.232Y-82.804
X78.232Y-92.964
X78.232Y-103.124
X78.232Y-124.079
X78.232Y-125.349
X78.295Y-78.295
X78.295Y-88.456
X78.295Y-98.615
X78.486Y-117.602
X78.486Y-118.364
X78.994Y-84.836
X78.994Y-94.996
X79.819Y-121.031
X80.264Y-82.804
X80.264Y-92.964
X80.264Y-103.124
X81.28Y-106.045
X81.524Y-98.806
X81.534Y-78.486
X81.534Y-88.646
X81.889Y-75.666
X81.889Y-85.826
X81.889Y-95.986
X81.915Y-106.68
X81.915Y-122.237
X82.55Y-107.315
X82.55Y-122.872
X82.74Y-120.332
X82.804Y-121.349
X83.312Y-81.28
X83.693Y-79.629
X83.82Y-121.603
X84.01Y-77.787
X84.328Y-119.57
X84.391Y-117.284
X84.455Y-74.93
X84.455Y-126.365
X84.582Y-78.359
X84.772Y-115.76
X84.899Y-117.983
X85.09Y-81.724
X85.09Y-83.693
X85.153Y-119.57
X85.153Y-125.73
X85.407Y-89.281
X85.471Y-86.169
X85.471Y-107.696
X85.725Y-74.93
X85.788Y-116.776
X85.788Y-120.777
X85.979Y-87.694
X86.042Y-110.49
X86.233Y-89.408
X86.233Y-96.647
X86.36Y-93.345
X86.677Y-78.803
X86.741Y-118.618
X86.868Y-96.012
X86.995Y-110.49
X86.995Y-125.666
X87.503Y-115.316
X87.503Y-118.618
X87.63Y-80.581
X87.63Y-83.82
X87.63Y-125.095
X87.757Y-94.043
X88.075Y-115.887
X88.138Y-76.708
X88.201Y-119.316
X88.265Y-79.121
X88.265Y-80.01
X88.265Y-84.138
X88.265Y-88.138
X88.265Y-118.554
X88.265Y-124.46
X88.392Y-94.932
X88.9Y-84.455
X88.9Y-87.503
X88.9Y-123.825
X88.963Y-119.253
X89.027Y-111.633
X89.154Y-79.121
X89.535Y-84.772
X89.789Y-121.285
X89.916Y-105.918
X89.916Y-111.379
X90.678Y-110.363
X90.805Y-83.566
X90.995Y-85.852
X91.059Y-79.756
X91.059Y-120.904
X91.249Y-109.664
X91.44Y-82.931
X91.44Y-97.917
X91.44Y-101.727
X91.44Y-122.174
X91.44Y-125.984
X91.567Y-80.518
X91.694Y-78.994
X92.71Y-105.156
X92.837Y-120.904
X92.9Y-86.042
X93.027Y-96.203
X93.345Y-97.219
X93.345Y-106.68
X93.345Y-116.84
X93.472Y-108.712
X93.535Y-120.65
X93.726Y-79.883
X93.853Y-77.788
X93.853Y-78.867
X93.98Y-87.757
X94.361Y-120.777
X94.678Y-118.618
X94.742Y-87.503
X94.742Y-88.519
X94.742Y-94.361
X95.186Y-120.904
X95.25Y-88.011
X95.377Y-118.554
X95.379Y-83.032
X95.504Y-94.488
X95.758Y-110.617
X95.885Y-81.28
X95.885Y-123.825
X96.012Y-82.169
X96.393Y-91.376
X96.393Y-119.189
X96.456Y-92.9
X96.52Y-87.249
X96.52Y-123.19
X96.774Y-111.76
X97.155Y-119.38
X97.282Y-110.49
X98.044Y-114.427
X98.171Y-115.951
X99.06Y-94.361
X99.06Y-95.25
X99.06Y-118.11
X99.251Y-126.365
X99.568Y-78.994
X99.568Y-80.899
X100.139Y-83.82
X100.965Y-128.841
X101.599Y-99.505
X101.6Y-119.316
X101.981Y-84.772
X101.981Y-88.9
X103.505Y-117.475
X103.759Y-72.39
X103.886Y-109.982
X103.886Y-111.76
X104.394Y-115.252
X104.419Y-119.723
X104.775Y-134.62
X105.156Y-115.252
X105.283Y-73.279
X105.918Y-115.252
X106.553Y-108.648
X106.807Y-73.279
X106.87Y-122.872
X106.87Y-124.142
X107.124Y-137.922
X107.505Y-123.507
X107.696Y-80.137
X107.759Y-101.727
X107.823Y-94.424
X107.823Y-103.95
X108.077Y-116.205
X108.14Y-122.872
X108.14Y-124.142
X108.648Y-100.139
X108.775Y-102.171
X109.283Y-134.429
X110.363Y-85.09
X110.617Y-119.507
X111.125Y-98.425
X111.125Y-107.95
X111.316Y-88.392
X111.506Y-100.012
X111.506Y-109.537
X111.506Y-119.888
X111.633Y-99.075
X111.633Y-85.598
X111.633Y-108.585
X113.792Y-89.916
X114.935Y-113.157
T2
X74.422Y-75.057
X74.422Y-85.217
X74.422Y-95.377
X74.422Y-105.537
X75.565Y-67.945
X75.565Y-69.469
X76.2Y-78.74
X76.2Y-88.9
X76.2Y-99.06
X76.327Y-68.707
X77.089Y-67.945
X77.089Y-69.469
X77.216Y-79.756
X77.216Y-89.916
X77.216Y-100.076
X79.438Y-130.619
X83.185Y-74.93
X86.995Y-74.93
X89.599Y-130.619
X90.678Y-71.628
X90.678Y-73.152
X91.44Y-72.39
X92.202Y-71.628
X92.202Y-73.152
X95.885Y-74.93
X99.695Y-74.93
X99.695Y-122.237
X107.315Y-118.491
X109.474Y-124.079
T3
X97.028Y-97.218
X98.425Y-104.394
X94.488Y-97.218
X85.09Y-102.87
X99.695Y-109.982
X97.79Y-88.9
X100.965Y-104.394
X95.885Y-104.394
X99.06Y-82.55
X87.63Y-102.87
X99.06Y-85.09
T4
X93.98Y-134.62
X93.98Y-137.16
X93.98Y-139.7
X96.52Y-134.62
X96.52Y-137.16
X96.52Y-139.7
X99.06Y-134.62
X99.06Y-137.16
X99.06Y-139.7
X101.6Y-134.62
X101.6Y-137.16
X101.6Y-139.7
X81.28Y-134.62
X81.28Y-137.16
X81.28Y-139.7
X83.82Y-134.62
X83.82Y-137.16
X83.82Y-139.7
X86.36Y-134.62
X86.36Y-137.16
X86.36Y-139.7
X88.9Y-134.62
X88.9Y-137.16
X88.9Y-139.7
T5
X110.998Y-76.2
X110.998Y-81.28
X71.882Y-76.2
X71.882Y-81.28
X71.882Y-86.36
X71.882Y-91.44
X71.882Y-96.52
X71.882Y-101.6
T6
X113.03Y-67.31
X69.85Y-140.97
X113.03Y-140.97
X69.85Y-67.31
T7
X114.884Y-115.721
X114.884Y-118.721
X114.884Y-87.654
X114.884Y-90.654
T0
M30
