G04 #@! TF.GenerationSoftware,KiCad,Pcbnew,(5.1.5)-3*
G04 #@! TF.CreationDate,2021-06-29T21:35:50-07:00*
G04 #@! TF.ProjectId,piggy,70696767-792e-46b6-9963-61645f706362,rev?*
G04 #@! TF.SameCoordinates,Original*
G04 #@! TF.FileFunction,Copper,L2,Bot*
G04 #@! TF.FilePolarity,Positive*
%FSLAX46Y46*%
G04 Gerber Fmt 4.6, Leading zero omitted, Abs format (unit mm)*
G04 Created by KiCad (PCBNEW (5.1.5)-3) date 2021-06-29 21:35:50*
%MOMM*%
%LPD*%
G04 APERTURE LIST*
%ADD10C,4.400000*%
%ADD11C,2.000000*%
%ADD12O,1.700000X1.700000*%
%ADD13R,1.700000X1.700000*%
%ADD14C,2.600000*%
%ADD15R,2.600000X2.600000*%
%ADD16C,0.800000*%
%ADD17C,0.508000*%
%ADD18C,0.254000*%
G04 APERTURE END LIST*
D10*
X113030000Y-140970000D03*
X69850000Y-140970000D03*
X113030000Y-67310000D03*
X69850000Y-67310000D03*
D11*
X105664000Y-98806000D03*
X103124000Y-98806000D03*
X105664000Y-95504000D03*
X103124000Y-95504000D03*
D12*
X99060000Y-85090000D03*
D13*
X99060000Y-82550000D03*
D12*
X100965000Y-104394000D03*
X98425000Y-104394000D03*
D13*
X95885000Y-104394000D03*
D12*
X97028000Y-97218500D03*
D13*
X94488000Y-97218500D03*
D12*
X87630000Y-102870000D03*
D13*
X85090000Y-102870000D03*
D14*
X88900000Y-69342000D03*
D15*
X93980000Y-69342000D03*
D13*
X97790000Y-88900000D03*
X99695000Y-109982000D03*
D16*
X74295000Y-115570000D03*
X73660000Y-111760000D03*
X76835000Y-84455000D03*
X88900000Y-81280000D03*
X74295000Y-90170000D03*
X86360004Y-114300000D03*
X88265000Y-110490002D03*
D17*
X85090000Y-80040000D02*
X85090000Y-102870000D01*
X93980000Y-69342000D02*
X93980000Y-71150000D01*
X93980000Y-71150000D02*
X85090000Y-80040000D01*
X85090000Y-102870000D02*
X82550000Y-102870000D01*
X82550000Y-102870000D02*
X73660000Y-111760000D01*
X81074999Y-84055001D02*
X85090000Y-80040000D01*
X77234999Y-84055001D02*
X81074999Y-84055001D01*
X76835000Y-84455000D02*
X77234999Y-84055001D01*
X88900000Y-101600000D02*
X87630000Y-102870000D01*
X88900000Y-81280000D02*
X88900000Y-101600000D01*
X74930000Y-115570000D02*
X87630000Y-102870000D01*
X74295000Y-115570000D02*
X74930000Y-115570000D01*
X74295000Y-83947000D02*
X88900000Y-69342000D01*
X74295000Y-90170000D02*
X74295000Y-83947000D01*
D18*
X87865001Y-110890001D02*
X88265000Y-110490002D01*
X86360004Y-114300000D02*
X86360004Y-112394998D01*
X86360004Y-112394998D02*
X87865001Y-110890001D01*
X101709787Y-98806000D02*
X103124000Y-98806000D01*
X97413419Y-98806000D02*
X101709787Y-98806000D01*
X97028000Y-98420581D02*
X97413419Y-98806000D01*
X97028000Y-97218500D02*
X97028000Y-98420581D01*
X104538213Y-98806000D02*
X105664000Y-98806000D01*
X103124000Y-98806000D02*
X104538213Y-98806000D01*
X95098500Y-95504000D02*
X101709787Y-95504000D01*
X94488000Y-96114500D02*
X95098500Y-95504000D01*
X101709787Y-95504000D02*
X103124000Y-95504000D01*
X94488000Y-97218500D02*
X94488000Y-96114500D01*
X104538213Y-95504000D02*
X105664000Y-95504000D01*
X103124000Y-95504000D02*
X104538213Y-95504000D01*
M02*
