G04 #@! TF.GenerationSoftware,KiCad,Pcbnew,(5.1.5)-3*
G04 #@! TF.CreationDate,2021-06-29T21:35:50-07:00*
G04 #@! TF.ProjectId,piggy,70696767-792e-46b6-9963-61645f706362,rev?*
G04 #@! TF.SameCoordinates,Original*
G04 #@! TF.FileFunction,Copper,L1,Top*
G04 #@! TF.FilePolarity,Positive*
%FSLAX46Y46*%
G04 Gerber Fmt 4.6, Leading zero omitted, Abs format (unit mm)*
G04 Created by KiCad (PCBNEW (5.1.5)-3) date 2021-06-29 21:35:50*
%MOMM*%
%LPD*%
G04 APERTURE LIST*
%ADD10C,4.400000*%
%ADD11C,2.000000*%
%ADD12O,1.700000X1.700000*%
%ADD13R,1.700000X1.700000*%
%ADD14C,2.600000*%
%ADD15R,2.600000X2.600000*%
%ADD16R,2.400000X0.740000*%
%ADD17C,0.800000*%
%ADD18C,0.508000*%
%ADD19C,0.254000*%
G04 APERTURE END LIST*
D10*
X113030000Y-140970000D03*
X69850000Y-140970000D03*
X113030000Y-67310000D03*
X69850000Y-67310000D03*
D11*
X105664000Y-98806000D03*
X103124000Y-98806000D03*
X105664000Y-95504000D03*
X103124000Y-95504000D03*
D12*
X99060000Y-85090000D03*
D13*
X99060000Y-82550000D03*
D12*
X100965000Y-104394000D03*
X98425000Y-104394000D03*
D13*
X95885000Y-104394000D03*
D12*
X97028000Y-97218500D03*
D13*
X94488000Y-97218500D03*
D12*
X87630000Y-102870000D03*
D13*
X85090000Y-102870000D03*
D14*
X88900000Y-69342000D03*
D15*
X93980000Y-69342000D03*
D16*
X80690000Y-91440000D03*
X76790000Y-91440000D03*
X80690000Y-90170000D03*
X76790000Y-90170000D03*
X80690000Y-88900000D03*
X76790000Y-88900000D03*
X80690000Y-87630000D03*
X76790000Y-87630000D03*
X80690000Y-86360000D03*
X76790000Y-86360000D03*
X80690000Y-116840000D03*
X76790000Y-116840000D03*
X80690000Y-115570000D03*
X76790000Y-115570000D03*
X80690000Y-114300000D03*
X76790000Y-114300000D03*
X80690000Y-113030000D03*
X76790000Y-113030000D03*
X80690000Y-111760000D03*
X76790000Y-111760000D03*
D13*
X97790000Y-88900000D03*
X99695000Y-109982000D03*
D17*
X74295000Y-115570000D03*
X73660000Y-111760000D03*
X76835000Y-84455000D03*
X88900000Y-81280000D03*
X74295000Y-90170000D03*
X86360004Y-114300000D03*
X88265000Y-110490002D03*
D18*
X74295000Y-115570000D02*
X74295000Y-115087000D01*
X74295000Y-116053000D02*
X74295000Y-115570000D01*
X76790000Y-116840000D02*
X75082000Y-116840000D01*
X75082000Y-116840000D02*
X74295000Y-116053000D01*
X76790000Y-114300000D02*
X75082000Y-114300000D01*
X75082000Y-114300000D02*
X74295000Y-115087000D01*
X73660000Y-111760000D02*
X76790000Y-111760000D01*
X76790000Y-86360000D02*
X76790000Y-84500000D01*
X76790000Y-84500000D02*
X76835000Y-84455000D01*
X88900000Y-69342000D02*
X88900000Y-81280000D01*
X76790000Y-87630000D02*
X76790000Y-88900000D01*
X75082000Y-88900000D02*
X74295000Y-89687000D01*
X76790000Y-88900000D02*
X75082000Y-88900000D01*
X74295000Y-90653000D02*
X74295000Y-90170000D01*
X75082000Y-91440000D02*
X74295000Y-90653000D01*
X76790000Y-91440000D02*
X75082000Y-91440000D01*
X74295000Y-90170000D02*
X74295000Y-89687000D01*
X76790000Y-113030000D02*
X76790000Y-114300000D01*
D19*
X82140000Y-116840000D02*
X80690000Y-116840000D01*
X93937000Y-116840000D02*
X82140000Y-116840000D01*
X99695000Y-111082000D02*
X93937000Y-116840000D01*
X99695000Y-109982000D02*
X99695000Y-111082000D01*
X82140000Y-91440000D02*
X80690000Y-91440000D01*
X94150000Y-91440000D02*
X82140000Y-91440000D01*
X96690000Y-88900000D02*
X94150000Y-91440000D01*
X97790000Y-88900000D02*
X96690000Y-88900000D01*
X80690000Y-111760000D02*
X91059000Y-111760000D01*
X91059000Y-111760000D02*
X98425000Y-104394000D01*
X80690000Y-114300000D02*
X86360004Y-114300000D01*
X95885000Y-104394000D02*
X94361002Y-104394000D01*
X88664999Y-110090003D02*
X88265000Y-110490002D01*
X94361002Y-104394000D02*
X88664999Y-110090003D01*
X80690000Y-113030000D02*
X92329000Y-113030000D01*
X92329000Y-113030000D02*
X100965000Y-104394000D01*
X97960000Y-82550000D02*
X94150000Y-86360000D01*
X99060000Y-82550000D02*
X97960000Y-82550000D01*
X94150000Y-86360000D02*
X80690000Y-86360000D01*
X80690000Y-87630000D02*
X94107000Y-87630000D01*
X95317919Y-87630000D02*
X94107000Y-87630000D01*
X97857919Y-85090000D02*
X95317919Y-87630000D01*
X99060000Y-85090000D02*
X97857919Y-85090000D01*
M02*
