M48
; DRILL file {KiCad (5.1.5)-3} date 6/29/2021 9:35:58 PM
; FORMAT={-:-/ absolute / metric / decimal}
; #@! TF.CreationDate,2021-06-29T21:35:58-07:00
; #@! TF.GenerationSoftware,Kicad,Pcbnew,(5.1.5)-3
FMAT,2
METRIC
T1C0.400
T2C1.000
T3C1.300
T4C2.200
%
G90
G05
T1
X73.66Y-111.76
X74.295Y-90.17
X74.295Y-115.57
X76.835Y-84.455
X86.36Y-114.3
X88.265Y-110.49
X88.9Y-81.28
T2
X94.488Y-97.218
X97.028Y-97.218
X103.124Y-95.504
X105.664Y-95.504
X95.885Y-104.394
X98.425Y-104.394
X100.965Y-104.394
X85.09Y-102.87
X87.63Y-102.87
X103.124Y-98.806
X105.664Y-98.806
X97.79Y-88.9
X99.695Y-109.982
X99.06Y-82.55
X99.06Y-85.09
T3
X88.9Y-69.342
X93.98Y-69.342
T4
X69.85Y-140.97
X69.85Y-67.31
X113.03Y-67.31
X113.03Y-140.97
T0
M30
